PathFileType	3	(X/Y/Z)	running_2__fused_aligned.trc
DataRate	CameraRate	NumFrames	NumMarkers	Units	OrigDataRate	OrigDataStartFrame	OrigNumFrames
100.0	100.0	10	19	mm	100.0	1036	6395
Frame#	Time	pelvis			neck			head			hip_left			hip_right			knee_left			knee_right			ankle_left			ankle_right			heel_left			heel_right			toe_left			toe_right			shoulder_left			shoulder_right			elbow_left			elbow_right			wrist_left			wrist_right			
		X1	Y1	Z1	X2	Y2	Z2	X3	Y3	Z3	X4	Y4	Z4	X5	Y5	Z5	X6	Y6	Z6	X7	Y7	Z7	X8	Y8	Z8	X9	Y9	Z9	X10	Y10	Z10	X11	Y11	Z11	X12	Y12	Z12	X13	Y13	Z13	X14	Y14	Z14	X15	Y15	Z15	X16	Y16	Z16	X17	Y17	Z17	X18	Y18	Z18	X19	Y19	Z19	
1036	10.35000	24.875954	951.132808	156.304904	14.234889	1492.236195	312.875133	26.582584	1564.987797	466.168154	100.997223	953.665919	154.725842	-51.245273	948.599735	157.883774	117.734363	540.586895	304.446539	-109.927163	523.621262	225.716503	115.232016	138.482621	203.148350	-151.500696	250.050727	-69.068879	112.897927	89.780667	165.793470	-151.125245	240.765367	-123.195635	112.790554	84.202923	392.792638	-161.126134	89.564098	6.242226	174.533642	1471.936630	247.060588	-155.961868	1445.626782	279.390858	262.342788	1264.825353	88.506474	-236.830969	1194.241474	194.315634	281.054582	1090.813304	224.842618	-140.609876	1088.582928	379.493145
1037	10.36000	26.337770	952.097905	155.417285	15.982753	1493.047485	312.681376	28.000715	1565.934412	466.008254	102.398169	954.732035	153.936075	-49.722586	949.463813	156.898302	118.965371	541.485584	298.472723	-108.857078	525.227258	226.913876	116.594321	135.220521	200.602424	-151.364583	252.274696	-65.407850	114.202220	85.490501	163.375253	-151.062276	243.104758	-119.224539	114.850893	82.623196	393.826974	-161.277479	92.261925	9.287876	176.722874	1472.059236	248.250750	-153.975233	1447.764594	277.817022	264.268375	1263.274870	93.640825	-235.946969	1198.774161	189.269832	278.078205	1093.503046	231.513481	-142.100905	1090.541974	372.608526
1038	10.37000	28.018263	952.357027	154.822969	16.804889	1493.162999	312.506432	27.864049	1566.383358	465.739211	104.058639	955.027768	153.481605	-48.022063	949.686319	156.164163	120.101531	540.564005	290.143181	-106.624284	526.729298	231.185783	116.853702	135.042015	190.103085	-149.413937	251.561434	-54.604215	114.170575	85.774775	152.708642	-149.259152	241.683793	-107.759590	115.562704	80.985431	381.536969	-159.044661	94.141142	21.653918	178.497948	1471.703109	250.668266	-152.726848	1448.739067	275.259770	267.538809	1261.424768	99.913014	-235.378490	1201.995865	181.992319	272.003411	1095.750772	240.071186	-145.110848	1090.057130	363.694412
1039	10.38000	29.698755	952.616149	154.228654	17.627025	1493.278513	312.331488	27.727383	1566.832304	465.470169	105.719109	955.323501	153.027134	-46.321539	949.908826	155.430023	121.237691	539.642425	281.813639	-104.391489	528.231339	235.457689	117.113084	134.863509	179.603747	-147.463291	250.848172	-43.800579	114.138929	86.059049	142.042030	-147.456028	240.262828	-96.294641	116.274516	79.347665	369.246964	-156.811844	96.020359	34.019960	180.273023	1471.346982	253.085782	-151.478464	1449.713541	272.702519	270.809243	1259.574666	106.185202	-234.810010	1205.217569	174.714807	265.928617	1097.998499	248.628891	-148.120791	1089.572287	354.780298
1040	10.39000	31.379248	952.875272	153.634338	18.449161	1493.394026	312.156545	27.590718	1567.281250	465.201126	107.379579	955.619233	152.572664	-44.621015	950.131333	154.695884	122.373852	538.720846	273.484097	-102.158695	529.733379	239.729596	117.372465	134.685004	169.104408	-145.512644	250.134910	-32.996944	114.107284	86.343324	131.375419	-145.652904	238.841863	-84.829692	116.986328	77.709900	356.956959	-154.579026	97.899576	46.386001	182.048097	1470.990855	255.503298	-150.230079	1450.688015	270.145267	274.079678	1257.724564	112.457391	-234.241530	1208.439274	167.437294	259.853823	1100.246226	257.186595	-151.130734	1089.087443	345.866184
1041	10.40000	33.059741	953.134394	153.040023	19.271297	1493.509540	311.981601	27.454052	1567.730197	464.932083	109.040050	955.914966	152.118194	-42.920491	950.353839	153.961745	123.510012	537.799267	265.154555	-99.925901	531.235419	244.001503	117.631847	134.506498	158.605069	-143.561998	249.421648	-22.193308	114.075638	86.627598	120.708807	-143.849780	237.420898	-73.364743	117.698140	76.072135	344.666954	-152.346209	99.778794	58.752043	183.823172	1470.634728	257.920813	-148.981695	1451.662489	267.588016	277.350112	1255.874462	118.729580	-233.673051	1211.660978	160.159782	253.779029	1102.493952	265.744300	-154.140677	1088.602600	336.952070
1042	10.41000	34.740233	953.393516	152.445708	20.093433	1493.625054	311.806658	27.317386	1568.179143	464.663040	110.700520	956.210699	151.663724	-41.219968	950.576346	153.227605	124.646172	536.877688	256.825013	-97.693106	532.737459	248.273410	117.891228	134.327992	148.105730	-141.611352	248.708386	-11.389673	114.043993	86.911873	110.042195	-142.046656	235.999933	-61.899794	118.409952	74.434369	332.376949	-150.113391	101.658011	71.118085	185.598246	1470.278601	260.338329	-147.733310	1452.636962	265.030764	280.620547	1254.024360	125.001769	-233.104571	1214.882682	152.882269	247.704235	1104.741679	274.302005	-157.150620	1088.117756	328.037956
1043	10.42000	36.420726	953.652638	151.851392	20.915569	1493.740568	311.631714	27.180720	1568.628089	464.393997	112.360990	956.506432	151.209254	-39.519444	950.798853	152.493466	125.782332	535.956109	248.495471	-95.460312	534.239499	252.545317	118.150609	134.149487	137.606392	-139.660706	247.995125	-0.586037	114.012347	87.196147	99.375584	-140.243532	234.578968	-50.434845	119.121764	72.796604	320.086944	-147.880574	103.537228	83.484126	187.373321	1469.922474	262.755845	-146.484925	1453.611436	262.473513	283.890981	1252.174258	131.273957	-232.536091	1218.104386	145.604756	241.629440	1106.989406	282.859710	-160.160563	1087.632912	319.123842
1044	10.43000	38.101218	953.911761	151.257077	21.737704	1493.856082	311.456770	27.044054	1569.077036	464.124955	114.021460	956.802165	150.754784	-37.818920	951.021359	151.759327	126.918492	535.034530	240.165929	-93.227518	535.741539	256.817224	118.409991	133.970981	127.107053	-137.710059	247.281863	10.217598	113.980702	87.480421	88.708972	-138.440409	233.158003	-38.969896	119.833576	71.158838	307.796939	-145.647756	105.416445	95.850168	189.148395	1469.566347	265.173361	-145.236541	1454.585910	259.916261	287.161416	1250.324156	137.546146	-231.967612	1221.326090	138.327244	235.554646	1109.237132	291.417414	-163.170506	1087.148069	310.209728
1045	10.44000	39.781711	954.170883	150.662761	22.559840	1493.971596	311.281827	26.907389	1569.525982	463.855912	115.681930	957.097898	150.300313	-36.118397	951.243866	151.025187	128.054652	534.112951	231.836387	-90.994723	537.243580	261.089130	118.669372	133.792475	116.607714	-135.759413	246.568601	21.021234	113.949056	87.764696	78.042361	-136.637285	231.737038	-27.504948	120.545388	69.521073	295.506934	-143.414939	107.295662	108.216210	190.923470	1469.210220	267.590877	-143.988156	1455.560384	257.359010	290.431850	1248.474054	143.818335	-231.399132	1224.547794	131.049731	229.479852	1111.484859	299.975119	-166.180449	1086.663225	301.295614
